<svg width="570" height="246" viewBox="0 0 570 246" fill="none" xmlns="http://www.w3.org/2000/svg">
<path d="M20.0248 183.413C20.0248 181.323 20.4528 179.473 21.3087 177.862C22.1897 176.251 23.3729 175.005 24.8581 174.123C26.3686 173.217 28.0426 172.764 29.8803 172.764C31.2397 172.764 32.5739 173.066 33.8829 173.67C35.2171 174.249 36.2744 175.03 37.0548 176.011V165.967H41.3972V193.91H37.0548V190.776C36.3499 191.783 35.3681 192.613 34.1094 193.268C32.8759 193.922 31.4536 194.25 29.8425 194.25C28.03 194.25 26.3686 193.797 24.8581 192.89C23.3729 191.959 22.1897 190.675 21.3087 189.039C20.4528 187.377 20.0248 185.502 20.0248 183.413ZM37.0548 183.488C37.0548 182.053 36.7527 180.807 36.1485 179.75C35.5695 178.692 34.8017 177.887 33.8451 177.333C32.8885 176.779 31.8564 176.502 30.7488 176.502C29.6411 176.502 28.609 176.779 27.6524 177.333C26.6958 177.862 25.9154 178.655 25.3113 179.712C24.7323 180.744 24.4428 181.978 24.4428 183.413C24.4428 184.847 24.7323 186.106 25.3113 187.189C25.9154 188.271 26.6958 189.102 27.6524 189.681C28.6342 190.235 29.6663 190.511 30.7488 190.511C31.8564 190.511 32.8885 190.235 33.8451 189.681C34.8017 189.127 35.5695 188.321 36.1485 187.264C36.7527 186.182 37.0548 184.923 37.0548 183.488ZM66.1202 182.997C66.1202 183.778 66.0699 184.482 65.9692 185.112H50.072C50.1979 186.773 50.8147 188.107 51.9223 189.114C53.0299 190.121 54.3893 190.625 56.0004 190.625C58.3164 190.625 59.9527 189.656 60.9093 187.717H65.5538C64.9245 189.63 63.7791 191.204 62.1176 192.437C60.4813 193.646 58.4423 194.25 56.0004 194.25C54.0117 194.25 52.2244 193.809 50.6385 192.928C49.0777 192.022 47.8442 190.763 46.9379 189.152C46.0569 187.516 45.6163 185.628 45.6163 183.488C45.6163 181.348 46.0443 179.473 46.9002 177.862C47.7813 176.225 49.0022 174.967 50.5629 174.086C52.1489 173.205 53.9614 172.764 56.0004 172.764C57.964 172.764 59.7135 173.192 61.2491 174.048C62.7847 174.904 63.9805 176.112 64.8364 177.673C65.6923 179.209 66.1202 180.983 66.1202 182.997ZM61.6267 181.638C61.6016 180.052 61.0351 178.781 59.9275 177.824C58.8199 176.867 57.4479 176.389 55.8116 176.389C54.3264 176.389 53.0551 176.867 51.9978 177.824C50.9405 178.755 50.3112 180.027 50.1098 181.638H61.6267ZM68.9216 183.488C68.9216 181.348 69.3495 179.473 70.2054 177.862C71.0865 176.225 72.2948 174.967 73.8304 174.086C75.366 173.205 77.1281 172.764 79.1169 172.764C81.6342 172.764 83.711 173.368 85.3473 174.577C87.0088 175.76 88.129 177.459 88.708 179.674H84.0635C83.6859 178.642 83.0817 177.837 82.251 177.258C81.4202 176.679 80.3755 176.389 79.1169 176.389C77.3547 176.389 75.945 177.018 74.8877 178.277C73.8556 179.511 73.3395 181.248 73.3395 183.488C73.3395 185.728 73.8556 187.478 74.8877 188.737C75.945 189.995 77.3547 190.625 79.1169 190.625C81.609 190.625 83.2579 189.53 84.0635 187.34H88.708C88.1038 189.454 86.971 191.141 85.3096 192.399C83.6481 193.633 81.5839 194.25 79.1169 194.25C77.1281 194.25 75.366 193.809 73.8304 192.928C72.2948 192.022 71.0865 190.763 70.2054 189.152C69.3495 187.516 68.9216 185.628 68.9216 183.488ZM112.067 182.997C112.067 183.778 112.017 184.482 111.916 185.112H96.0188C96.1446 186.773 96.7614 188.107 97.869 189.114C98.9767 190.121 100.336 190.625 101.947 190.625C104.263 190.625 105.899 189.656 106.856 187.717H111.501C110.871 189.63 109.726 191.204 108.064 192.437C106.428 193.646 104.389 194.25 101.947 194.25C99.9584 194.25 98.1711 193.809 96.5852 192.928C95.0244 192.022 93.7909 190.763 92.8846 189.152C92.0036 187.516 91.563 185.628 91.563 183.488C91.563 181.348 91.991 179.473 92.8469 177.862C93.728 176.225 94.9489 174.967 96.5096 174.086C98.0956 173.205 99.9081 172.764 101.947 172.764C103.911 172.764 105.66 173.192 107.196 174.048C108.731 174.904 109.927 176.112 110.783 177.673C111.639 179.209 112.067 180.983 112.067 182.997ZM107.573 181.638C107.548 180.052 106.982 178.781 105.874 177.824C104.767 176.867 103.395 176.389 101.758 176.389C100.273 176.389 99.0018 176.867 97.9445 177.824C96.8872 178.755 96.2579 180.027 96.0565 181.638H107.573ZM126.801 172.764C128.437 172.764 129.897 173.104 131.181 173.784C132.49 174.463 133.509 175.47 134.239 176.804C134.969 178.139 135.334 179.75 135.334 181.638V193.91H131.067V182.28C131.067 180.417 130.602 178.995 129.67 178.013C128.739 177.006 127.468 176.502 125.857 176.502C124.245 176.502 122.962 177.006 122.005 178.013C121.074 178.995 120.608 180.417 120.608 182.28V193.91H116.303V173.104H120.608V175.483C121.313 174.627 122.206 173.96 123.289 173.482C124.396 173.003 125.567 172.764 126.801 172.764ZM145.847 176.616V188.133C145.847 188.913 146.024 189.479 146.376 189.832C146.754 190.159 147.383 190.323 148.264 190.323H150.907V193.91H147.509C145.571 193.91 144.085 193.457 143.053 192.551C142.021 191.644 141.505 190.172 141.505 188.133V176.616H139.051V173.104H141.505V167.931H145.847V173.104H150.907V176.616H145.847ZM159.179 176.125C159.809 175.067 160.64 174.249 161.672 173.67C162.729 173.066 163.975 172.764 165.41 172.764V177.22H164.315C162.628 177.22 161.344 177.648 160.463 178.504C159.607 179.36 159.179 180.845 159.179 182.959V193.91H154.875V173.104H159.179V176.125ZM167.932 183.413C167.932 181.323 168.36 179.473 169.216 177.862C170.097 176.251 171.28 175.005 172.765 174.123C174.276 173.217 175.937 172.764 177.75 172.764C179.386 172.764 180.808 173.091 182.017 173.746C183.25 174.375 184.232 175.168 184.962 176.125V173.104H189.304V193.91H184.962V190.814C184.232 191.795 183.237 192.613 181.979 193.268C180.72 193.922 179.285 194.25 177.674 194.25C175.887 194.25 174.25 193.797 172.765 192.89C171.28 191.959 170.097 190.675 169.216 189.039C168.36 187.377 167.932 185.502 167.932 183.413ZM184.962 183.488C184.962 182.053 184.66 180.807 184.056 179.75C183.477 178.692 182.709 177.887 181.752 177.333C180.796 176.779 179.764 176.502 178.656 176.502C177.548 176.502 176.516 176.779 175.56 177.333C174.603 177.862 173.823 178.655 173.218 179.712C172.639 180.744 172.35 181.978 172.35 183.413C172.35 184.847 172.639 186.106 173.218 187.189C173.823 188.271 174.603 189.102 175.56 189.681C176.541 190.235 177.573 190.511 178.656 190.511C179.764 190.511 180.796 190.235 181.752 189.681C182.709 189.127 183.477 188.321 184.056 187.264C184.66 186.182 184.962 184.923 184.962 183.488ZM199.263 165.967V193.91H194.958V165.967H199.263ZM207.105 170.347C206.324 170.347 205.67 170.083 205.141 169.554C204.613 169.026 204.348 168.371 204.348 167.591C204.348 166.811 204.613 166.156 205.141 165.627C205.67 165.099 206.324 164.834 207.105 164.834C207.86 164.834 208.502 165.099 209.031 165.627C209.559 166.156 209.824 166.811 209.824 167.591C209.824 168.371 209.559 169.026 209.031 169.554C208.502 170.083 207.86 170.347 207.105 170.347ZM209.219 173.104V193.91H204.915V173.104H209.219ZM218.685 190.398H228.125V193.91H213.7V190.398L223.178 176.616H213.7V173.104H228.125V176.616L218.685 190.398ZM251.714 182.997C251.714 183.778 251.664 184.482 251.563 185.112H235.666C235.792 186.773 236.408 188.107 237.516 189.114C238.624 190.121 239.983 190.625 241.594 190.625C243.91 190.625 245.546 189.656 246.503 187.717H251.148C250.518 189.63 249.373 191.204 247.711 192.437C246.075 193.646 244.036 194.25 241.594 194.25C239.605 194.25 237.818 193.809 236.232 192.928C234.671 192.022 233.438 190.763 232.532 189.152C231.651 187.516 231.21 185.628 231.21 183.488C231.21 181.348 231.638 179.473 232.494 177.862C233.375 176.225 234.596 174.967 236.157 174.086C237.743 173.205 239.555 172.764 241.594 172.764C243.558 172.764 245.307 173.192 246.843 174.048C248.378 174.904 249.574 176.112 250.43 177.673C251.286 179.209 251.714 180.983 251.714 182.997ZM247.22 181.638C247.195 180.052 246.629 178.781 245.521 177.824C244.414 176.867 243.042 176.389 241.405 176.389C239.92 176.389 238.649 176.867 237.592 177.824C236.534 178.755 235.905 180.027 235.704 181.638H247.22ZM254.515 183.413C254.515 181.323 254.943 179.473 255.799 177.862C256.68 176.251 257.863 175.005 259.349 174.123C260.859 173.217 262.533 172.764 264.371 172.764C265.73 172.764 267.064 173.066 268.373 173.67C269.708 174.249 270.765 175.03 271.545 176.011V165.967H275.888V193.91H271.545V190.776C270.84 191.783 269.859 192.613 268.6 193.268C267.366 193.922 265.944 194.25 264.333 194.25C262.52 194.25 260.859 193.797 259.349 192.89C257.863 191.959 256.68 190.675 255.799 189.039C254.943 187.377 254.515 185.502 254.515 183.413ZM271.545 183.488C271.545 182.053 271.243 180.807 270.639 179.75C270.06 178.692 269.292 177.887 268.336 177.333C267.379 176.779 266.347 176.502 265.239 176.502C264.132 176.502 263.099 176.779 262.143 177.333C261.186 177.862 260.406 178.655 259.802 179.712C259.223 180.744 258.933 181.978 258.933 183.413C258.933 184.847 259.223 186.106 259.802 187.189C260.406 188.271 261.186 189.102 262.143 189.681C263.125 190.235 264.157 190.511 265.239 190.511C266.347 190.511 267.379 190.235 268.336 189.681C269.292 189.127 270.06 188.321 270.639 187.264C271.243 186.182 271.545 184.923 271.545 183.488ZM316.537 172.764C318.173 172.764 319.633 173.104 320.917 173.784C322.226 174.463 323.245 175.47 323.975 176.804C324.731 178.139 325.108 179.75 325.108 181.638V193.91H320.841V182.28C320.841 180.417 320.376 178.995 319.444 178.013C318.513 177.006 317.242 176.502 315.63 176.502C314.019 176.502 312.735 177.006 311.779 178.013C310.847 178.995 310.382 180.417 310.382 182.28V193.91H306.115V182.28C306.115 180.417 305.649 178.995 304.718 178.013C303.786 177.006 302.515 176.502 300.904 176.502C299.293 176.502 298.009 177.006 297.052 178.013C296.121 178.995 295.655 180.417 295.655 182.28V193.91H291.351V173.104H295.655V175.483C296.36 174.627 297.254 173.96 298.336 173.482C299.419 173.003 300.577 172.764 301.81 172.764C303.472 172.764 304.957 173.117 306.266 173.821C307.575 174.526 308.582 175.546 309.287 176.88C309.916 175.621 310.898 174.627 312.232 173.897C313.566 173.142 315.001 172.764 316.537 172.764ZM339.611 194.25C337.647 194.25 335.872 193.809 334.286 192.928C332.701 192.022 331.454 190.763 330.548 189.152C329.642 187.516 329.189 185.628 329.189 183.488C329.189 181.373 329.655 179.498 330.586 177.862C331.517 176.225 332.789 174.967 334.4 174.086C336.011 173.205 337.811 172.764 339.799 172.764C341.788 172.764 343.588 173.205 345.199 174.086C346.81 174.967 348.082 176.225 349.013 177.862C349.944 179.498 350.41 181.373 350.41 183.488C350.41 185.603 349.932 187.478 348.975 189.114C348.019 190.751 346.71 192.022 345.048 192.928C343.412 193.809 341.599 194.25 339.611 194.25ZM339.611 190.511C340.718 190.511 341.75 190.247 342.707 189.719C343.689 189.19 344.482 188.397 345.086 187.34C345.69 186.282 345.992 184.998 345.992 183.488C345.992 181.978 345.703 180.706 345.124 179.674C344.545 178.617 343.777 177.824 342.82 177.295C341.864 176.767 340.832 176.502 339.724 176.502C338.616 176.502 337.584 176.767 336.628 177.295C335.696 177.824 334.954 178.617 334.4 179.674C333.846 180.706 333.569 181.978 333.569 183.488C333.569 185.728 334.135 187.465 335.268 188.699C336.426 189.907 337.874 190.511 339.611 190.511ZM365.163 172.764C366.799 172.764 368.259 173.104 369.543 173.784C370.852 174.463 371.872 175.47 372.602 176.804C373.332 178.139 373.697 179.75 373.697 181.638V193.91H369.43V182.28C369.43 180.417 368.964 178.995 368.033 178.013C367.101 177.006 365.83 176.502 364.219 176.502C362.608 176.502 361.324 177.006 360.367 178.013C359.436 178.995 358.97 180.417 358.97 182.28V193.91H354.666V173.104H358.97V175.483C359.675 174.627 360.569 173.96 361.651 173.482C362.759 173.003 363.929 172.764 365.163 172.764ZM398.257 182.997C398.257 183.778 398.206 184.482 398.106 185.112H382.208C382.334 186.773 382.951 188.107 384.059 189.114C385.166 190.121 386.526 190.625 388.137 190.625C390.453 190.625 392.089 189.656 393.046 187.717H397.69C397.061 189.63 395.915 191.204 394.254 192.437C392.618 193.646 390.579 194.25 388.137 194.25C386.148 194.25 384.361 193.809 382.775 192.928C381.214 192.022 379.981 190.763 379.074 189.152C378.193 187.516 377.753 185.628 377.753 183.488C377.753 181.348 378.181 179.473 379.037 177.862C379.918 176.225 381.139 174.967 382.699 174.086C384.285 173.205 386.098 172.764 388.137 172.764C390.1 172.764 391.85 173.192 393.386 174.048C394.921 174.904 396.117 176.112 396.973 177.673C397.829 179.209 398.257 180.983 398.257 182.997ZM393.763 181.638C393.738 180.052 393.172 178.781 392.064 177.824C390.956 176.867 389.584 176.389 387.948 176.389C386.463 176.389 385.192 176.867 384.134 177.824C383.077 178.755 382.448 180.027 382.246 181.638H393.763ZM421.222 173.104L408.459 203.69H404.003L408.232 193.57L400.038 173.104H404.834L410.687 188.963L416.766 173.104H421.222ZM459.466 172.764C461.102 172.764 462.562 173.104 463.846 173.784C465.155 174.463 466.174 175.47 466.904 176.804C467.66 178.139 468.037 179.75 468.037 181.638V193.91H463.77V182.28C463.77 180.417 463.305 178.995 462.373 178.013C461.442 177.006 460.17 176.502 458.559 176.502C456.948 176.502 455.664 177.006 454.708 178.013C453.776 178.995 453.311 180.417 453.311 182.28V193.91H449.044V182.28C449.044 180.417 448.578 178.995 447.647 178.013C446.715 177.006 445.444 176.502 443.833 176.502C442.222 176.502 440.938 177.006 439.981 178.013C439.05 178.995 438.584 180.417 438.584 182.28V193.91H434.279V173.104H438.584V175.483C439.289 174.627 440.183 173.96 441.265 173.482C442.348 173.003 443.506 172.764 444.739 172.764C446.401 172.764 447.886 173.117 449.195 173.821C450.504 174.526 451.511 175.546 452.216 176.88C452.845 175.621 453.827 174.627 455.161 173.897C456.495 173.142 457.93 172.764 459.466 172.764ZM472.08 183.413C472.08 181.323 472.508 179.473 473.364 177.862C474.245 176.251 475.428 175.005 476.913 174.123C478.424 173.217 480.085 172.764 481.898 172.764C483.534 172.764 484.956 173.091 486.165 173.746C487.398 174.375 488.38 175.168 489.11 176.125V173.104H493.452V193.91H489.11V190.814C488.38 191.795 487.385 192.613 486.127 193.268C484.868 193.922 483.433 194.25 481.822 194.25C480.035 194.25 478.399 193.797 476.913 192.89C475.428 191.959 474.245 190.675 473.364 189.039C472.508 187.377 472.08 185.502 472.08 183.413ZM489.11 183.488C489.11 182.053 488.808 180.807 488.204 179.75C487.625 178.692 486.857 177.887 485.9 177.333C484.944 176.779 483.912 176.502 482.804 176.502C481.696 176.502 480.664 176.779 479.708 177.333C478.751 177.862 477.971 178.655 477.366 179.712C476.787 180.744 476.498 181.978 476.498 183.413C476.498 184.847 476.787 186.106 477.366 187.189C477.971 188.271 478.751 189.102 479.708 189.681C480.689 190.235 481.721 190.511 482.804 190.511C483.912 190.511 484.944 190.235 485.9 189.681C486.857 189.127 487.625 188.321 488.204 187.264C488.808 186.182 489.11 184.923 489.11 183.488ZM503.411 176.125C504.04 175.067 504.871 174.249 505.903 173.67C506.961 173.066 508.207 172.764 509.641 172.764V177.22H508.546C506.86 177.22 505.576 177.648 504.695 178.504C503.839 179.36 503.411 180.845 503.411 182.959V193.91H499.106V173.104H503.411V176.125ZM521.83 183.526L531.421 193.91H525.606L517.903 184.961V193.91H513.598V165.967H517.903V182.204L525.455 173.104H531.421L521.83 183.526ZM553.576 182.997C553.576 183.778 553.525 184.482 553.425 185.112H537.528C537.653 186.773 538.27 188.107 539.378 189.114C540.485 190.121 541.845 190.625 543.456 190.625C545.772 190.625 547.408 189.656 548.365 187.717H553.009C552.38 189.63 551.235 191.204 549.573 192.437C547.937 193.646 545.898 194.25 543.456 194.25C541.467 194.25 539.68 193.809 538.094 192.928C536.533 192.022 535.3 190.763 534.393 189.152C533.512 187.516 533.072 185.628 533.072 183.488C533.072 181.348 533.5 179.473 534.356 177.862C535.237 176.225 536.458 174.967 538.018 174.086C539.604 173.205 541.417 172.764 543.456 172.764C545.419 172.764 547.169 173.192 548.705 174.048C550.24 174.904 551.436 176.112 552.292 177.673C553.148 179.209 553.576 180.983 553.576 182.997ZM549.082 181.638C549.057 180.052 548.491 178.781 547.383 177.824C546.275 176.867 544.903 176.389 543.267 176.389C541.782 176.389 540.511 176.867 539.453 177.824C538.396 178.755 537.767 180.027 537.565 181.638H549.082ZM562.834 176.616V188.133C562.834 188.913 563.01 189.479 563.363 189.832C563.74 190.159 564.37 190.323 565.251 190.323H567.894V193.91H564.496C562.557 193.91 561.072 193.457 560.04 192.551C559.008 191.644 558.492 190.172 558.492 188.133V176.616H556.037V173.104H558.492V167.931H562.834V173.104H567.894V176.616H562.834ZM182.263 218.163C182.993 217.206 183.988 216.4 185.247 215.746C186.505 215.091 187.928 214.764 189.513 214.764C191.326 214.764 192.975 215.217 194.46 216.123C195.97 217.005 197.154 218.251 198.01 219.862C198.865 221.473 199.293 223.323 199.293 225.413C199.293 227.502 198.865 229.377 198.01 231.039C197.154 232.675 195.97 233.959 194.46 234.89C192.975 235.797 191.326 236.25 189.513 236.25C187.928 236.25 186.518 235.935 185.284 235.306C184.051 234.651 183.044 233.846 182.263 232.889V245.803H177.959V215.104H182.263V218.163ZM194.913 225.413C194.913 223.978 194.611 222.744 194.007 221.712C193.428 220.655 192.648 219.862 191.666 219.333C190.709 218.779 189.677 218.502 188.569 218.502C187.487 218.502 186.455 218.779 185.473 219.333C184.516 219.887 183.736 220.692 183.132 221.75C182.553 222.807 182.263 224.053 182.263 225.488C182.263 226.923 182.553 228.182 183.132 229.264C183.736 230.321 184.516 231.127 185.473 231.681C186.455 232.235 187.487 232.511 188.569 232.511C189.677 232.511 190.709 232.235 191.666 231.681C192.648 231.102 193.428 230.271 194.007 229.189C194.611 228.106 194.913 226.847 194.913 225.413ZM207.855 218.125C208.484 217.067 209.315 216.249 210.347 215.67C211.404 215.066 212.651 214.764 214.085 214.764V219.22H212.99C211.304 219.22 210.02 219.648 209.139 220.504C208.283 221.36 207.855 222.845 207.855 224.959V235.91H203.55V215.104H207.855V218.125ZM227.067 236.25C225.103 236.25 223.329 235.809 221.743 234.928C220.157 234.022 218.911 232.763 218.005 231.152C217.098 229.516 216.645 227.628 216.645 225.488C216.645 223.373 217.111 221.498 218.042 219.862C218.974 218.225 220.245 216.967 221.856 216.086C223.467 215.205 225.267 214.764 227.256 214.764C229.245 214.764 231.044 215.205 232.656 216.086C234.267 216.967 235.538 218.225 236.469 219.862C237.401 221.498 237.866 223.373 237.866 225.488C237.866 227.603 237.388 229.478 236.432 231.114C235.475 232.751 234.166 234.022 232.505 234.928C230.868 235.809 229.056 236.25 227.067 236.25ZM227.067 232.511C228.175 232.511 229.207 232.247 230.163 231.719C231.145 231.19 231.938 230.397 232.542 229.34C233.146 228.282 233.449 226.998 233.449 225.488C233.449 223.978 233.159 222.706 232.58 221.674C232.001 220.617 231.233 219.824 230.277 219.295C229.32 218.767 228.288 218.502 227.18 218.502C226.073 218.502 225.041 218.767 224.084 219.295C223.153 219.824 222.41 220.617 221.856 221.674C221.302 222.706 221.025 223.978 221.025 225.488C221.025 227.728 221.592 229.465 222.725 230.699C223.883 231.907 225.33 232.511 227.067 232.511ZM247.144 218.616V230.133C247.144 230.913 247.32 231.479 247.673 231.832C248.05 232.159 248.68 232.323 249.561 232.323H252.204V235.91H248.806C246.867 235.91 245.382 235.457 244.35 234.551C243.318 233.644 242.802 232.172 242.802 230.133V218.616H240.347V215.104H242.802V209.931H247.144V215.104H252.204V218.616H247.144ZM265.196 236.25C263.233 236.25 261.458 235.809 259.872 234.928C258.286 234.022 257.04 232.763 256.134 231.152C255.227 229.516 254.774 227.628 254.774 225.488C254.774 223.373 255.24 221.498 256.171 219.862C257.103 218.225 258.374 216.967 259.985 216.086C261.596 215.205 263.396 214.764 265.385 214.764C267.374 214.764 269.174 215.205 270.785 216.086C272.396 216.967 273.667 218.225 274.598 219.862C275.53 221.498 275.996 223.373 275.996 225.488C275.996 227.603 275.517 229.478 274.561 231.114C273.604 232.751 272.295 234.022 270.634 234.928C268.997 235.809 267.185 236.25 265.196 236.25ZM265.196 232.511C266.304 232.511 267.336 232.247 268.292 231.719C269.274 231.19 270.067 230.397 270.671 229.34C271.276 228.282 271.578 226.998 271.578 225.488C271.578 223.978 271.288 222.706 270.709 221.674C270.13 220.617 269.362 219.824 268.406 219.295C267.449 218.767 266.417 218.502 265.309 218.502C264.202 218.502 263.17 218.767 262.213 219.295C261.282 219.824 260.539 220.617 259.985 221.674C259.431 222.706 259.154 223.978 259.154 225.488C259.154 227.728 259.721 229.465 260.854 230.699C262.012 231.907 263.459 232.511 265.196 232.511ZM278.816 225.488C278.816 223.348 279.244 221.473 280.1 219.862C280.981 218.225 282.189 216.967 283.725 216.086C285.261 215.205 287.023 214.764 289.011 214.764C291.529 214.764 293.606 215.368 295.242 216.577C296.903 217.76 298.024 219.459 298.603 221.674H293.958C293.58 220.642 292.976 219.837 292.146 219.258C291.315 218.679 290.27 218.389 289.011 218.389C287.249 218.389 285.84 219.018 284.782 220.277C283.75 221.511 283.234 223.248 283.234 225.488C283.234 227.728 283.75 229.478 284.782 230.737C285.84 231.995 287.249 232.625 289.011 232.625C291.504 232.625 293.152 231.53 293.958 229.34H298.603C297.998 231.454 296.866 233.141 295.204 234.399C293.543 235.633 291.478 236.25 289.011 236.25C287.023 236.25 285.261 235.809 283.725 234.928C282.189 234.022 280.981 232.763 280.1 231.152C279.244 229.516 278.816 227.628 278.816 225.488ZM311.917 236.25C309.954 236.25 308.179 235.809 306.593 234.928C305.007 234.022 303.761 232.763 302.855 231.152C301.949 229.516 301.495 227.628 301.495 225.488C301.495 223.373 301.961 221.498 302.893 219.862C303.824 218.225 305.095 216.967 306.706 216.086C308.317 215.205 310.117 214.764 312.106 214.764C314.095 214.764 315.895 215.205 317.506 216.086C319.117 216.967 320.388 218.225 321.32 219.862C322.251 221.498 322.717 223.373 322.717 225.488C322.717 227.603 322.238 229.478 321.282 231.114C320.325 232.751 319.016 234.022 317.355 234.928C315.718 235.809 313.906 236.25 311.917 236.25ZM311.917 232.511C313.025 232.511 314.057 232.247 315.014 231.719C315.995 231.19 316.788 230.397 317.392 229.34C317.997 228.282 318.299 226.998 318.299 225.488C318.299 223.978 318.009 222.706 317.43 221.674C316.851 220.617 316.083 219.824 315.127 219.295C314.17 218.767 313.138 218.502 312.031 218.502C310.923 218.502 309.891 218.767 308.934 219.295C308.003 219.824 307.26 220.617 306.706 221.674C306.152 222.706 305.876 223.978 305.876 225.488C305.876 227.728 306.442 229.465 307.575 230.699C308.733 231.907 310.18 232.511 311.917 232.511ZM331.277 207.967V235.91H326.972V207.967H331.277ZM355.762 236.25C353.798 236.25 352.024 235.809 350.438 234.928C348.852 234.022 347.606 232.763 346.7 231.152C345.793 229.516 345.34 227.628 345.34 225.488C345.34 223.373 345.806 221.498 346.737 219.862C347.669 218.225 348.94 216.967 350.551 216.086C352.162 215.205 353.962 214.764 355.951 214.764C357.94 214.764 359.739 215.205 361.351 216.086C362.962 216.967 364.233 218.225 365.164 219.862C366.096 221.498 366.561 223.373 366.561 225.488C366.561 227.603 366.083 229.478 365.127 231.114C364.17 232.751 362.861 234.022 361.2 234.928C359.563 235.809 357.751 236.25 355.762 236.25ZM355.762 232.511C356.87 232.511 357.902 232.247 358.858 231.719C359.84 231.19 360.633 230.397 361.237 229.34C361.841 228.282 362.144 226.998 362.144 225.488C362.144 223.978 361.854 222.706 361.275 221.674C360.696 220.617 359.928 219.824 358.972 219.295C358.015 218.767 356.983 218.502 355.875 218.502C354.768 218.502 353.736 218.767 352.779 219.295C351.848 219.824 351.105 220.617 350.551 221.674C349.997 222.706 349.72 223.978 349.72 225.488C349.72 227.728 350.287 229.465 351.42 230.699C352.578 231.907 354.025 232.511 355.762 232.511ZM381.314 214.764C382.951 214.764 384.411 215.104 385.695 215.784C387.004 216.463 388.023 217.47 388.753 218.804C389.483 220.139 389.848 221.75 389.848 223.638V235.91H385.581V224.28C385.581 222.417 385.116 220.995 384.184 220.013C383.253 219.006 381.981 218.502 380.37 218.502C378.759 218.502 377.475 219.006 376.519 220.013C375.587 220.995 375.122 222.417 375.122 224.28V235.91H370.817V215.104H375.122V217.483C375.826 216.627 376.72 215.96 377.803 215.482C378.91 215.003 380.081 214.764 381.314 214.764ZM423.499 217.483C423.499 218.817 423.185 220.076 422.555 221.259C421.926 222.442 420.919 223.411 419.535 224.166C418.15 224.896 416.375 225.261 414.21 225.261H409.453V235.91H405.148V209.666H414.21C416.224 209.666 417.923 210.019 419.308 210.724C420.718 211.403 421.762 212.335 422.442 213.518C423.147 214.701 423.499 216.023 423.499 217.483ZM414.21 221.75C415.847 221.75 417.068 221.385 417.873 220.655C418.679 219.9 419.081 218.842 419.081 217.483C419.081 214.613 417.458 213.178 414.21 213.178H409.453V221.75H414.21ZM436.63 236.25C434.666 236.25 432.891 235.809 431.306 234.928C429.72 234.022 428.473 232.763 427.567 231.152C426.661 229.516 426.208 227.628 426.208 225.488C426.208 223.373 426.674 221.498 427.605 219.862C428.536 218.225 429.808 216.967 431.419 216.086C433.03 215.205 434.83 214.764 436.819 214.764C438.807 214.764 440.607 215.205 442.218 216.086C443.829 216.967 445.101 218.225 446.032 219.862C446.963 221.498 447.429 223.373 447.429 225.488C447.429 227.603 446.951 229.478 445.994 231.114C445.038 232.751 443.729 234.022 442.067 234.928C440.431 235.809 438.618 236.25 436.63 236.25ZM436.63 232.511C437.737 232.511 438.769 232.247 439.726 231.719C440.708 231.19 441.501 230.397 442.105 229.34C442.709 228.282 443.011 226.998 443.011 225.488C443.011 223.978 442.722 222.706 442.143 221.674C441.564 220.617 440.796 219.824 439.839 219.295C438.883 218.767 437.851 218.502 436.743 218.502C435.635 218.502 434.603 218.767 433.647 219.295C432.715 219.824 431.973 220.617 431.419 221.674C430.865 222.706 430.588 223.978 430.588 225.488C430.588 227.728 431.154 229.465 432.287 230.699C433.445 231.907 434.893 232.511 436.63 232.511ZM455.989 207.967V235.91H451.685V207.967H455.989ZM469.873 225.526L479.464 235.91H473.649L465.946 226.961V235.91H461.641V207.967H465.946V224.204L473.498 215.104H479.464L469.873 225.526ZM481.114 225.413C481.114 223.323 481.542 221.473 482.398 219.862C483.279 218.251 484.463 217.005 485.948 216.123C487.458 215.217 489.12 214.764 490.932 214.764C492.568 214.764 493.991 215.091 495.199 215.746C496.433 216.375 497.414 217.168 498.144 218.125V215.104H502.487V235.91H498.144V232.814C497.414 233.795 496.42 234.613 495.161 235.268C493.903 235.922 492.468 236.25 490.857 236.25C489.069 236.25 487.433 235.797 485.948 234.89C484.463 233.959 483.279 232.675 482.398 231.039C481.542 229.377 481.114 227.502 481.114 225.413ZM498.144 225.488C498.144 224.053 497.842 222.807 497.238 221.75C496.659 220.692 495.891 219.887 494.935 219.333C493.978 218.779 492.946 218.502 491.838 218.502C490.731 218.502 489.699 218.779 488.742 219.333C487.785 219.862 487.005 220.655 486.401 221.712C485.822 222.744 485.532 223.978 485.532 225.413C485.532 226.847 485.822 228.106 486.401 229.189C487.005 230.271 487.785 231.102 488.742 231.681C489.724 232.235 490.756 232.511 491.838 232.511C492.946 232.511 493.978 232.235 494.935 231.681C495.891 231.127 496.659 230.321 497.238 229.264C497.842 228.182 498.144 226.923 498.144 225.488ZM506.706 225.413C506.706 223.323 507.134 221.473 507.99 219.862C508.871 218.251 510.054 217.005 511.539 216.123C513.05 215.217 514.724 214.764 516.561 214.764C517.921 214.764 519.255 215.066 520.564 215.67C521.898 216.249 522.955 217.03 523.736 218.011V207.967H528.078V235.91H523.736V232.776C523.031 233.783 522.049 234.613 520.791 235.268C519.557 235.922 518.135 236.25 516.524 236.25C514.711 236.25 513.05 235.797 511.539 234.89C510.054 233.959 508.871 232.675 507.99 231.039C507.134 229.377 506.706 227.502 506.706 225.413ZM523.736 225.488C523.736 224.053 523.434 222.807 522.83 221.75C522.251 220.692 521.483 219.887 520.526 219.333C519.57 218.779 518.537 218.502 517.43 218.502C516.322 218.502 515.29 218.779 514.334 219.333C513.377 219.862 512.597 220.655 511.992 221.712C511.413 222.744 511.124 223.978 511.124 225.413C511.124 226.847 511.413 228.106 511.992 229.189C512.597 230.271 513.377 231.102 514.334 231.681C515.315 232.235 516.347 232.511 517.43 232.511C518.537 232.511 519.57 232.235 520.526 231.681C521.483 231.127 522.251 230.321 522.83 229.264C523.434 228.182 523.736 226.923 523.736 225.488ZM542.757 236.25C540.793 236.25 539.019 235.809 537.433 234.928C535.847 234.022 534.601 232.763 533.695 231.152C532.788 229.516 532.335 227.628 532.335 225.488C532.335 223.373 532.801 221.498 533.732 219.862C534.664 218.225 535.935 216.967 537.546 216.086C539.157 215.205 540.957 214.764 542.946 214.764C544.935 214.764 546.734 215.205 548.346 216.086C549.957 216.967 551.228 218.225 552.159 219.862C553.091 221.498 553.556 223.373 553.556 225.488C553.556 227.603 553.078 229.478 552.122 231.114C551.165 232.751 549.856 234.022 548.195 234.928C546.558 235.809 544.746 236.25 542.757 236.25ZM542.757 232.511C543.865 232.511 544.897 232.247 545.853 231.719C546.835 231.19 547.628 230.397 548.232 229.34C548.836 228.282 549.139 226.998 549.139 225.488C549.139 223.978 548.849 222.706 548.27 221.674C547.691 220.617 546.923 219.824 545.967 219.295C545.01 218.767 543.978 218.502 542.87 218.502C541.763 218.502 540.731 218.767 539.774 219.295C538.843 219.824 538.1 220.617 537.546 221.674C536.992 222.706 536.715 223.978 536.715 225.488C536.715 227.728 537.282 229.465 538.415 230.699C539.573 231.907 541.02 232.511 542.757 232.511ZM562.834 218.616V230.133C562.834 230.913 563.01 231.479 563.363 231.832C563.74 232.159 564.37 232.323 565.251 232.323H567.894V235.91H564.495C562.557 235.91 561.072 235.457 560.04 234.551C559.008 233.644 558.492 232.172 558.492 230.133V218.616H556.037V215.104H558.492V209.931H562.834V215.104H567.894V218.616H562.834Z" fill="white"/>
<path d="M15.0678 98.158C14.1337 98.158 13.3396 97.831 12.6857 97.1771C12.0319 96.5232 11.7049 95.7292 11.7049 94.7951V3.57668C11.7049 2.54913 12.0319 1.70841 12.6857 1.05451C13.3396 0.400616 14.1337 0.0736673 15.0678 0.0736673H27.3984C28.4259 0.0736673 29.2667 0.400616 29.9206 1.05451C30.5745 1.70841 30.9014 2.54913 30.9014 3.57668V36.3649L62.5686 2.59584C62.9423 2.12877 63.5495 1.61499 64.3902 1.05451C65.3243 0.400616 66.5387 0.0736673 68.0333 0.0736673H81.9052C82.6525 0.0736673 83.3064 0.35391 83.8669 0.914396C84.5208 1.47488 84.8478 2.17548 84.8478 3.0162C84.8478 3.67009 84.6609 4.23057 84.2873 4.69764L45.7542 47.014L86.9496 93.3939C87.4166 93.9543 87.6502 94.5615 87.6502 95.2154C87.6502 96.0562 87.3232 96.7568 86.6693 97.3172C86.1088 97.8777 85.455 98.158 84.7076 98.158H70.2752C68.6872 98.158 67.4261 97.831 66.492 97.1771C65.6513 96.4298 65.0908 95.916 64.8105 95.6358L30.9014 58.5039V94.7951C30.9014 95.7292 30.5745 96.5232 29.9206 97.1771C29.2667 97.831 28.4259 98.158 27.3984 98.158H15.0678ZM208.719 98.158C207.784 98.158 206.99 97.831 206.337 97.1771C205.683 96.5232 205.356 95.7292 205.356 94.7951V3.57668C205.356 2.54913 205.683 1.70841 206.337 1.05451C206.99 0.400616 207.784 0.0736673 208.719 0.0736673H219.508C220.816 0.0736673 221.75 0.400616 222.31 1.05451C222.964 1.61499 223.385 2.03536 223.571 2.3156L263.926 65.0895V3.57668C263.926 2.54913 264.206 1.70841 264.767 1.05451C265.421 0.400616 266.261 0.0736673 267.289 0.0736673H279.059C280.087 0.0736673 280.927 0.400616 281.581 1.05451C282.235 1.70841 282.562 2.54913 282.562 3.57668V94.6549C282.562 95.6825 282.235 96.5232 281.581 97.1771C280.927 97.831 280.133 98.158 279.199 98.158H268.27C266.962 98.158 266.028 97.831 265.467 97.1771C264.907 96.5232 264.487 96.1029 264.206 95.916L223.992 34.5433V94.7951C223.992 95.7292 223.665 96.5232 223.011 97.1771C222.357 97.831 221.516 98.158 220.489 98.158H208.719ZM414.004 98.158C412.976 98.158 412.135 97.831 411.482 97.1771C410.828 96.5232 410.501 95.7292 410.501 94.7951V3.57668C410.501 2.54913 410.828 1.70841 411.482 1.05451C412.135 0.400616 412.976 0.0736673 414.004 0.0736673H425.073C426.381 0.0736673 427.362 0.447323 428.016 1.19463C428.67 1.84853 429.09 2.3623 429.277 2.73595L456.32 53.1793L483.644 2.73595C483.83 2.3623 484.251 1.84853 484.905 1.19463C485.559 0.447323 486.539 0.0736673 487.847 0.0736673H498.777C499.804 0.0736673 500.645 0.400616 501.299 1.05451C501.953 1.70841 502.28 2.54913 502.28 3.57668V94.7951C502.28 95.7292 501.953 96.5232 501.299 97.1771C500.645 97.831 499.804 98.158 498.777 98.158H487.006C485.979 98.158 485.138 97.831 484.484 97.1771C483.924 96.5232 483.644 95.7292 483.644 94.7951V34.1229L464.027 71.5351C463.56 72.3758 462.952 73.1231 462.205 73.777C461.458 74.3375 460.477 74.6177 459.263 74.6177H453.518C452.21 74.6177 451.182 74.3375 450.435 73.777C449.781 73.1231 449.221 72.3758 448.754 71.5351L429.137 34.1229V94.7951C429.137 95.7292 428.81 96.5232 428.156 97.1771C427.502 97.831 426.708 98.158 425.774 98.158H414.004ZM541.45 98.158C540.516 98.158 539.722 97.831 539.068 97.1771C538.414 96.5232 538.087 95.7292 538.087 94.7951V3.43656C538.087 2.50242 538.414 1.70841 539.068 1.05451C539.722 0.400616 540.516 0.0736673 541.45 0.0736673H554.621C555.649 0.0736673 556.443 0.400616 557.003 1.05451C557.657 1.70841 557.984 2.50242 557.984 3.43656V94.7951C557.984 95.7292 557.657 96.5232 557.003 97.1771C556.443 97.831 555.649 98.158 554.621 98.158H541.45Z" fill="white"/>
<mask id="mask0" mask-type="alpha" maskUnits="userSpaceOnUse" x="303" y="8" width="95" height="96">
<path d="M350.17 102.689C376.004 102.689 396.946 81.647 396.946 55.6901C396.946 29.7333 376.004 8.69116 350.17 8.69116C324.337 8.69116 303.394 29.7333 303.394 55.6901C303.394 81.647 324.337 102.689 350.17 102.689Z" fill="#3650FA" stroke="#FFE500" stroke-width="0.72667" stroke-miterlimit="10"/>
</mask>
<g mask="url(#mask0)">
<path d="M364.862 136.054L176.247 -53.4685" stroke="white" stroke-width="5.08669" stroke-miterlimit="10"/>
<path d="M380.849 136.054L192.234 -53.4685" stroke="white" stroke-width="5.08669" stroke-miterlimit="10"/>
<path d="M396.836 136.054L208.222 -53.4685" stroke="white" stroke-width="5.08669" stroke-miterlimit="10"/>
<path d="M412.821 136.054L224.207 -53.4685" stroke="white" stroke-width="5.08669" stroke-miterlimit="10"/>
<path d="M428.809 136.054L240.195 -53.4685" stroke="white" stroke-width="5.08669" stroke-miterlimit="10"/>
<path d="M444.796 136.054L256.181 -53.4685" stroke="white" stroke-width="5.08669" stroke-miterlimit="10"/>
<path d="M460.783 136.054L272.169 -53.4685" stroke="white" stroke-width="5.08669" stroke-miterlimit="10"/>
<path d="M476.771 136.054L288.156 -53.4685" stroke="white" stroke-width="5.08669" stroke-miterlimit="10"/>
<path d="M492.756 136.054L304.141 -53.4685" stroke="white" stroke-width="5.08669" stroke-miterlimit="10"/>
<path d="M508.742 136.054L320.128 -53.4685" stroke="white" stroke-width="5.08669" stroke-miterlimit="10"/>
<path d="M524.731 136.054L336.116 -53.4685" stroke="white" stroke-width="5.08669" stroke-miterlimit="10"/>
</g>
<path d="M144.25 98.8211C169.74 98.8211 190.403 78.0588 190.403 52.4472C190.403 26.8356 169.74 6.07324 144.25 6.07324C118.76 6.07324 98.0962 26.8356 98.0962 52.4472C98.0962 78.0588 118.76 98.8211 144.25 98.8211Z" fill="white" stroke="white" stroke-width="0.303181" stroke-miterlimit="10"/>
<path d="M430.502 131.158C430.266 131.158 430.065 131.075 429.899 130.909C429.733 130.744 429.65 130.543 429.65 130.306V113.55C429.65 113.313 429.733 113.112 429.899 112.947C430.065 112.781 430.266 112.698 430.502 112.698H433.413C433.65 112.698 433.851 112.781 434.017 112.947C434.183 113.112 434.265 113.313 434.265 113.55V115.006C434.881 114.248 435.662 113.621 436.608 113.124C437.579 112.603 438.774 112.343 440.194 112.343C441.637 112.343 442.892 112.674 443.957 113.337C445.022 113.976 445.838 114.887 446.406 116.071C446.998 117.254 447.294 118.674 447.294 120.331V130.306C447.294 130.543 447.211 130.744 447.045 130.909C446.88 131.075 446.678 131.158 446.442 131.158H443.318C443.081 131.158 442.88 131.075 442.714 130.909C442.549 130.744 442.466 130.543 442.466 130.306V120.544C442.466 119.171 442.123 118.094 441.436 117.313C440.774 116.532 439.803 116.142 438.525 116.142C437.295 116.142 436.313 116.532 435.579 117.313C434.845 118.094 434.478 119.171 434.478 120.544V130.306C434.478 130.543 434.396 130.744 434.23 130.909C434.064 131.075 433.863 131.158 433.626 131.158H430.502ZM459.755 131.513C457.128 131.513 455.045 130.756 453.507 129.241C451.969 127.726 451.14 125.573 451.022 122.78C450.998 122.543 450.987 122.247 450.987 121.893C450.987 121.514 450.998 121.218 451.022 121.005C451.117 119.206 451.519 117.668 452.229 116.39C452.963 115.088 453.969 114.094 455.247 113.408C456.525 112.698 458.027 112.343 459.755 112.343C461.672 112.343 463.281 112.745 464.583 113.55C465.885 114.331 466.867 115.432 467.53 116.852C468.192 118.248 468.524 119.869 468.524 121.715V122.46C468.524 122.697 468.441 122.898 468.275 123.064C468.109 123.23 467.896 123.312 467.636 123.312H455.85C455.85 123.312 455.85 123.348 455.85 123.419C455.85 123.49 455.85 123.549 455.85 123.596C455.874 124.425 456.028 125.194 456.312 125.904C456.619 126.59 457.057 127.146 457.625 127.572C458.217 127.998 458.915 128.211 459.72 128.211C460.382 128.211 460.938 128.117 461.388 127.927C461.838 127.714 462.205 127.478 462.489 127.217C462.773 126.957 462.974 126.744 463.092 126.578C463.305 126.294 463.471 126.129 463.589 126.081C463.731 126.01 463.932 125.975 464.193 125.975H467.246C467.482 125.975 467.672 126.046 467.814 126.188C467.979 126.33 468.05 126.507 468.027 126.72C468.003 127.099 467.802 127.561 467.423 128.105C467.068 128.649 466.547 129.182 465.861 129.702C465.175 130.223 464.311 130.661 463.27 131.016C462.252 131.347 461.08 131.513 459.755 131.513ZM455.85 120.331H463.696V120.224C463.696 119.301 463.542 118.496 463.234 117.81C462.926 117.1 462.477 116.556 461.885 116.177C461.293 115.775 460.583 115.574 459.755 115.574C458.927 115.574 458.217 115.775 457.625 116.177C457.033 116.556 456.584 117.1 456.276 117.81C455.992 118.496 455.85 119.301 455.85 120.224V120.331ZM480.565 131.158C479.145 131.158 477.95 130.909 476.979 130.412C476.009 129.915 475.287 129.182 474.814 128.211C474.341 127.217 474.104 125.987 474.104 124.519V116.461H471.299C471.063 116.461 470.862 116.378 470.696 116.213C470.53 116.047 470.447 115.834 470.447 115.574V113.55C470.447 113.313 470.53 113.112 470.696 112.947C470.862 112.781 471.063 112.698 471.299 112.698H474.104V106.805C474.104 106.568 474.175 106.367 474.317 106.202C474.483 106.036 474.696 105.953 474.956 105.953H477.831C478.068 105.953 478.269 106.036 478.435 106.202C478.601 106.367 478.683 106.568 478.683 106.805V112.698H483.121C483.358 112.698 483.559 112.781 483.724 112.947C483.89 113.112 483.973 113.313 483.973 113.55V115.574C483.973 115.834 483.89 116.047 483.724 116.213C483.559 116.378 483.358 116.461 483.121 116.461H478.683V124.164C478.683 125.135 478.849 125.892 479.18 126.436C479.535 126.981 480.139 127.253 480.991 127.253H483.44C483.677 127.253 483.878 127.336 484.044 127.501C484.21 127.667 484.292 127.868 484.292 128.105V130.306C484.292 130.543 484.21 130.744 484.044 130.909C483.878 131.075 483.677 131.158 483.44 131.158H480.565ZM492.483 131.158C492.151 131.158 491.903 131.075 491.737 130.909C491.571 130.744 491.429 130.531 491.311 130.27L486.235 113.799C486.211 113.68 486.199 113.574 486.199 113.479C486.199 113.266 486.27 113.089 486.412 112.947C486.578 112.781 486.755 112.698 486.945 112.698H489.572C489.856 112.698 490.08 112.781 490.246 112.947C490.412 113.089 490.506 113.231 490.53 113.373L494.009 125.123L497.701 113.479C497.748 113.313 497.855 113.148 498.021 112.982C498.186 112.793 498.435 112.698 498.766 112.698H500.541C500.872 112.698 501.121 112.793 501.287 112.982C501.452 113.148 501.559 113.313 501.606 113.479L505.298 125.123L508.777 113.373C508.801 113.231 508.884 113.089 509.026 112.947C509.191 112.781 509.416 112.698 509.7 112.698H512.327C512.54 112.698 512.718 112.781 512.86 112.947C513.025 113.089 513.108 113.266 513.108 113.479C513.108 113.574 513.084 113.68 513.037 113.799L507.961 130.27C507.89 130.531 507.759 130.744 507.57 130.909C507.404 131.075 507.156 131.158 506.825 131.158H504.517C504.209 131.158 503.949 131.075 503.736 130.909C503.547 130.744 503.417 130.531 503.346 130.27L499.654 119.053L495.962 130.27C495.867 130.531 495.725 130.744 495.536 130.909C495.37 131.075 495.11 131.158 494.755 131.158H492.483ZM524.208 131.513C522.314 131.513 520.717 131.182 519.415 130.519C518.137 129.856 517.155 128.921 516.469 127.714C515.806 126.507 515.427 125.099 515.333 123.49C515.309 123.064 515.297 122.543 515.297 121.928C515.297 121.313 515.309 120.792 515.333 120.366C515.427 118.733 515.818 117.325 516.504 116.142C517.214 114.935 518.208 114 519.486 113.337C520.788 112.674 522.362 112.343 524.208 112.343C526.054 112.343 527.616 112.674 528.894 113.337C530.195 114 531.189 114.935 531.875 116.142C532.585 117.325 532.988 118.733 533.082 120.366C533.106 120.792 533.118 121.313 533.118 121.928C533.118 122.543 533.106 123.064 533.082 123.49C532.988 125.099 532.597 126.507 531.911 127.714C531.248 128.921 530.266 129.856 528.965 130.519C527.687 131.182 526.101 131.513 524.208 131.513ZM524.208 127.998C525.462 127.998 526.432 127.608 527.119 126.827C527.805 126.022 528.184 124.851 528.255 123.312C528.278 122.957 528.29 122.496 528.29 121.928C528.29 121.36 528.278 120.899 528.255 120.544C528.184 119.005 527.805 117.846 527.119 117.065C526.432 116.26 525.462 115.858 524.208 115.858C522.953 115.858 521.983 116.26 521.297 117.065C520.61 117.846 520.232 119.005 520.161 120.544C520.137 120.899 520.125 121.36 520.125 121.928C520.125 122.496 520.137 122.957 520.161 123.312C520.232 124.851 520.61 126.022 521.297 126.827C521.983 127.608 522.953 127.998 524.208 127.998ZM537.903 131.158C537.667 131.158 537.465 131.075 537.3 130.909C537.134 130.744 537.051 130.543 537.051 130.306V113.586C537.051 113.325 537.134 113.112 537.3 112.947C537.465 112.781 537.667 112.698 537.903 112.698H540.779C541.015 112.698 541.217 112.781 541.382 112.947C541.572 113.112 541.666 113.325 541.666 113.586V115.041C542.211 114.284 542.909 113.704 543.761 113.302C544.636 112.899 545.642 112.698 546.778 112.698H548.234C548.494 112.698 548.695 112.781 548.837 112.947C549.003 113.112 549.086 113.313 549.086 113.55V116.106C549.086 116.343 549.003 116.544 548.837 116.71C548.695 116.875 548.494 116.958 548.234 116.958H545.465C544.329 116.958 543.441 117.278 542.802 117.917C542.187 118.532 541.879 119.408 541.879 120.544V130.306C541.879 130.543 541.796 130.744 541.631 130.909C541.465 131.075 541.252 131.158 540.992 131.158H537.903ZM552.742 131.158C552.505 131.158 552.304 131.075 552.138 130.909C551.973 130.744 551.89 130.543 551.89 130.306V106.805C551.89 106.568 551.973 106.367 552.138 106.202C552.304 106.036 552.505 105.953 552.742 105.953H555.617C555.878 105.953 556.079 106.036 556.221 106.202C556.387 106.367 556.469 106.568 556.469 106.805V118.946L562.433 113.302C562.67 113.112 562.859 112.97 563.001 112.876C563.167 112.757 563.416 112.698 563.747 112.698H567.048C567.285 112.698 567.474 112.769 567.616 112.911C567.758 113.053 567.829 113.242 567.829 113.479C567.829 113.574 567.806 113.68 567.758 113.799C567.711 113.917 567.616 114.023 567.474 114.118L560.161 120.97L568.362 129.773C568.599 130.01 568.717 130.211 568.717 130.377C568.717 130.614 568.634 130.803 568.468 130.945C568.326 131.087 568.149 131.158 567.936 131.158H564.563C564.208 131.158 563.948 131.111 563.782 131.016C563.64 130.898 563.463 130.744 563.25 130.554L556.469 123.419V130.306C556.469 130.543 556.387 130.744 556.221 130.909C556.079 131.075 555.878 131.158 555.617 131.158H552.742Z" fill="white"/>
</svg>
