<svg width="1986" height="1139" viewBox="0 0 1986 1139" fill="none" xmlns="http://www.w3.org/2000/svg">
<rect width="1920" height="1080" fill="#3650FA"/>
<mask id="mask0" mask-type="alpha" maskUnits="userSpaceOnUse" x="7" y="0" width="1979" height="1139">
<g opacity="0.1">
<path d="M34.5105 1.01929L7.38428 48.2229H61.6312L34.5105 1.01929Z" fill="#FAFAFA"/>
<path d="M55.7944 89.9023H13.2268V132.673H55.7944V89.9023Z" fill="#FAFAFA"/>
<path d="M135.934 3.23633H93.366V46.0071H135.934V3.23633Z" fill="#FAFAFA"/>
<path d="M59.2454 203.949C58.6885 236.619 10.3276 236.614 9.77612 203.949C10.3276 171.284 58.6939 171.289 59.2454 203.949Z" fill="#FAFAFA"/>
<path d="M114.65 180.347L87.5234 227.55H141.776L114.65 180.347Z" fill="#FAFAFA"/>
<path d="M216.471 182.569H173.904V225.34H216.471V182.569Z" fill="#FAFAFA"/>
<path d="M456.897 182.569H414.33V225.34H456.897V182.569Z" fill="#FAFAFA"/>
<path d="M139.384 111.288C138.827 143.959 90.4665 143.953 89.915 111.288C90.472 78.6174 138.833 78.6229 139.384 111.288Z" fill="#FAFAFA"/>
<path d="M219.922 24.5009C219.365 57.1715 171.004 57.166 170.453 24.5009C171.004 -8.16971 219.37 -8.16422 219.922 24.5009Z" fill="#FAFAFA"/>
<path d="M194.789 85.4641L167.668 132.673H221.915L194.789 85.4641Z" fill="#FAFAFA"/>
<path d="M274.933 1.01929L247.807 48.2229H302.06L274.933 1.01929Z" fill="#FAFAFA"/>
<path d="M296.217 89.9023H253.65V132.673H296.217V89.9023Z" fill="#FAFAFA"/>
<path d="M376.362 3.23633H333.794V46.0071H376.362V3.23633Z" fill="#FAFAFA"/>
<path d="M299.668 203.949C299.111 236.619 250.75 236.614 250.199 203.949C250.756 171.284 299.117 171.289 299.668 203.949Z" fill="#FAFAFA"/>
<path d="M537.705 203.949C537.148 236.619 488.787 236.614 488.236 203.949C488.793 171.284 537.154 171.289 537.705 203.949Z" fill="#FAFAFA"/>
<path d="M355.073 180.347L327.952 227.55H382.199L355.073 180.347Z" fill="#FAFAFA"/>
<path d="M379.807 111.288C379.25 143.959 330.89 143.953 330.338 111.288C330.895 78.6174 379.261 78.6229 379.807 111.288Z" fill="#FAFAFA"/>
<path d="M460.345 24.5009C459.788 57.1715 411.427 57.166 410.876 24.5009C411.433 -8.16971 459.794 -8.16422 460.345 24.5009Z" fill="#FAFAFA"/>
<path d="M435.217 85.4641L408.091 132.673H462.344L435.217 85.4641Z" fill="#FAFAFA"/>
<path d="M515.357 1.01929L488.236 48.2229H542.483L515.357 1.01929Z" fill="#FAFAFA"/>
<path d="M536.646 89.9023H494.078V132.673H536.646V89.9023Z" fill="#FAFAFA"/>
<path d="M616.785 3.23633H574.217V46.0071H616.785V3.23633Z" fill="#FAFAFA"/>
<path d="M595.501 180.347L568.375 227.55H622.628L595.501 180.347Z" fill="#F3F3F3"/>
<path d="M515.362 271.637L488.236 318.841H542.488L515.362 271.637Z" fill="#F3F3F3"/>
<path d="M697.323 182.569H654.755V225.34H697.323V182.569Z" fill="#FAFAFA"/>
<path d="M615.786 275.946H573.218V318.717H615.786V275.946Z" fill="#FAFAFA"/>
<path d="M620.236 111.288C619.679 143.959 571.318 143.953 570.767 111.288C571.324 78.6174 619.684 78.6229 620.236 111.288Z" fill="#FAFAFA"/>
<path d="M700.768 24.5009C700.211 57.1715 651.85 57.166 651.299 24.5009C651.856 -8.16971 700.222 -8.16422 700.768 24.5009Z" fill="#FAFAFA"/>
<path d="M675.64 85.4641L648.52 132.673H702.767L675.64 85.4641Z" fill="#FAFAFA"/>
<path d="M755.785 1.01929L728.659 48.2229H782.911L755.785 1.01929Z" fill="#FAFAFA"/>
<path d="M777.069 89.9023H734.501V132.673H777.069V89.9023Z" fill="#FAFAFA"/>
<path d="M857.214 3.23633H814.646V46.0071H857.214V3.23633Z" fill="#FAFAFA"/>
<path d="M780.52 203.949C779.963 236.619 731.602 236.614 731.05 203.949C731.602 171.284 779.968 171.289 780.52 203.949Z" fill="#FAFAFA"/>
<path d="M835.924 180.347L808.803 227.55H863.05L835.924 180.347Z" fill="#FAFAFA"/>
<path d="M937.746 182.569H895.178V225.34H937.746V182.569Z" fill="#FAFAFA"/>
<path d="M860.659 111.288C860.102 143.959 811.741 143.953 811.189 111.288C811.746 78.6174 860.107 78.6229 860.659 111.288Z" fill="#FAFAFA"/>
<path d="M941.197 24.5009C940.64 57.1715 892.279 57.166 891.728 24.5009C892.279 -8.16971 940.645 -8.16422 941.197 24.5009Z" fill="#FAFAFA"/>
<path d="M916.069 85.4641L888.943 132.673H943.19L916.069 85.4641Z" fill="#FAFAFA"/>
<path d="M996.208 1.01929L969.087 48.2229H1023.33L996.208 1.01929Z" fill="#FAFAFA"/>
<path d="M1017.49 89.9023H974.924V132.673H1017.49V89.9023Z" fill="#FAFAFA"/>
<path d="M1020.94 203.949C1020.39 236.619 972.025 236.614 971.474 203.949C972.031 171.284 1020.39 171.289 1020.94 203.949Z" fill="#FAFAFA"/>
<path d="M34.5105 273.854L7.38428 321.058H61.6312L34.5105 273.854Z" fill="#FAFAFA"/>
<path d="M55.7944 362.737H13.2268V405.507H55.7944V362.737Z" fill="#FAFAFA"/>
<path d="M135.934 276.07H93.366V318.841H135.934V276.07Z" fill="#FAFAFA"/>
<path d="M59.2454 476.783C58.6885 509.453 10.3276 509.448 9.77612 476.783C10.3276 444.112 58.6939 444.118 59.2454 476.783Z" fill="#FAFAFA"/>
<path d="M114.65 453.181L87.5234 500.385H141.776L114.65 453.181Z" fill="#FAFAFA"/>
<path d="M216.471 455.397H173.904V498.168H216.471V455.397Z" fill="#FAFAFA"/>
<path d="M139.384 384.117C138.827 416.787 90.4665 416.782 89.915 384.117C90.472 351.451 138.833 351.451 139.384 384.117Z" fill="#FAFAFA"/>
<path d="M219.922 297.33C219.365 330 171.004 329.995 170.453 297.33C171.004 264.664 219.37 264.67 219.922 297.33Z" fill="#FAFAFA"/>
<path d="M194.789 358.298L167.668 405.502H221.915L194.789 358.298Z" fill="#FAFAFA"/>
<path d="M274.933 273.854L247.807 321.058H302.06L274.933 273.854Z" fill="#FAFAFA"/>
<path d="M296.217 362.737H253.65V405.507H296.217V362.737Z" fill="#FAFAFA"/>
<path d="M376.362 276.07H333.794V318.841H376.362V276.07Z" fill="#FAFAFA"/>
<path d="M299.668 476.783C299.111 509.453 250.75 509.448 250.199 476.783C250.756 444.112 299.117 444.118 299.668 476.783Z" fill="#FAFAFA"/>
<path d="M355.073 453.181L327.952 500.385H382.199L355.073 453.181Z" fill="#FAFAFA"/>
<path d="M456.894 455.397H414.327V498.168H456.894V455.397Z" fill="#FAFAFA"/>
<path d="M379.807 384.117C379.25 416.787 330.89 416.782 330.338 384.117C330.895 351.451 379.261 351.451 379.807 384.117Z" fill="#FAFAFA"/>
<path d="M460.345 297.33C459.788 330 411.427 329.995 410.876 297.33C411.433 264.664 459.794 264.67 460.345 297.33Z" fill="#F3F3F3"/>
<path d="M435.217 358.298L408.091 405.502H462.344L435.217 358.298Z" fill="#F3F3F3"/>
<path d="M536.646 362.737H494.078V405.507H536.646V362.737Z" fill="#F3F3F3"/>
<path d="M540.091 476.783C539.534 509.453 491.174 509.448 490.622 476.783C491.179 444.112 539.545 444.118 540.091 476.783Z" fill="#FAFAFA"/>
<path d="M619.237 384.117C618.68 416.787 570.319 416.782 569.768 384.117C570.325 351.446 618.691 351.452 619.237 384.117Z" fill="#FAFAFA"/>
<path d="M595.501 453.181L568.375 500.385H622.628L595.501 453.181Z" fill="#FAFAFA"/>
<path d="M697.323 455.397H654.755V498.168H697.323V455.397Z" fill="#FAFAFA"/>
<path d="M700.768 297.33C700.211 330 651.85 329.995 651.299 297.33C651.856 264.664 700.222 264.67 700.768 297.33Z" fill="#FAFAFA"/>
<path d="M675.64 358.298L648.52 405.502H702.767L675.64 358.298Z" fill="#FAFAFA"/>
<path d="M755.785 273.854L728.659 321.058H782.911L755.785 273.854Z" fill="#FAFAFA"/>
<path d="M777.069 362.737H734.501V405.507H777.069V362.737Z" fill="#FAFAFA"/>
<path d="M857.214 276.07H814.646V318.841H857.214V276.07Z" fill="#FAFAFA"/>
<path d="M780.52 476.783C779.963 509.453 731.602 509.448 731.05 476.783C731.602 444.112 779.968 444.118 780.52 476.783Z" fill="#FAFAFA"/>
<path d="M835.924 453.181L808.803 500.385H863.05L835.924 453.181Z" fill="#FAFAFA"/>
<path d="M937.746 455.397H895.178V498.168H937.746V455.397Z" fill="#FAFAFA"/>
<path d="M860.659 384.117C860.102 416.787 811.741 416.782 811.189 384.117C811.746 351.451 860.107 351.451 860.659 384.117Z" fill="#FAFAFA"/>
<path d="M941.197 297.33C940.64 330 892.279 329.995 891.728 297.33C892.279 264.664 940.645 264.67 941.197 297.33Z" fill="#FAFAFA"/>
<path d="M916.069 358.298L888.943 405.502H943.19L916.069 358.298Z" fill="#FAFAFA"/>
<path d="M996.208 273.854L969.087 321.058H1023.33L996.208 273.854Z" fill="#FAFAFA"/>
<path d="M1017.49 362.737H974.924V405.507H1017.49V362.737Z" fill="#FAFAFA"/>
<path d="M1020.94 476.783C1020.39 509.453 972.025 509.448 971.474 476.783C972.031 444.112 1020.39 444.118 1020.94 476.783Z" fill="#FAFAFA"/>
<path d="M34.5105 546.683L7.38428 593.886H61.6312L34.5105 546.683Z" fill="#FAFAFA"/>
<path d="M135.934 548.899H93.366V591.67H135.934V548.899Z" fill="#FAFAFA"/>
<path d="M219.922 570.164C219.365 602.834 171.004 602.829 170.453 570.164C171.004 537.493 219.37 537.499 219.922 570.164Z" fill="#FAFAFA"/>
<path d="M274.933 546.683L247.807 593.886H302.06L274.933 546.683Z" fill="#FAFAFA"/>
<path d="M376.362 548.899H333.794V591.67H376.362V548.899Z" fill="#FAFAFA"/>
<path d="M460.345 570.164C459.788 602.834 411.427 602.829 410.876 570.164C411.433 537.493 459.794 537.499 460.345 570.164Z" fill="#FAFAFA"/>
<path d="M515.357 546.683L488.236 593.886H542.483L515.357 546.683Z" fill="#FAFAFA"/>
<path d="M616.785 548.899H574.217V591.67H616.785V548.899Z" fill="#FAFAFA"/>
<path d="M700.768 570.164C700.211 602.834 651.85 602.829 651.299 570.164C651.856 537.493 700.222 537.499 700.768 570.164Z" fill="#FAFAFA"/>
<path d="M755.785 546.683L728.659 593.886H782.911L755.785 546.683Z" fill="#FAFAFA"/>
<path d="M857.214 548.899H814.646V591.67H857.214V548.899Z" fill="#FAFAFA"/>
<path d="M941.197 570.164C940.64 602.834 892.279 602.829 891.728 570.164C892.279 537.493 940.645 537.499 941.197 570.164Z" fill="#FAFAFA"/>
<path d="M996.208 546.683L969.087 593.886H1023.33L996.208 546.683Z" fill="#FAFAFA"/>
<path d="M55.7944 633.025H13.2268V675.796H55.7944V633.025Z" fill="#FAFAFA"/>
<path d="M59.2454 747.071C58.6885 779.742 10.3276 779.737 9.77612 747.071C10.3276 714.406 58.6939 714.412 59.2454 747.071Z" fill="#FAFAFA"/>
<path d="M114.65 723.469L87.5234 770.673H141.776L114.65 723.469Z" fill="#FAFAFA"/>
<path d="M216.471 725.691H173.904V768.462H216.471V725.691Z" fill="#FAFAFA"/>
<path d="M456.897 725.691H414.33V768.462H456.897V725.691Z" fill="#FAFAFA"/>
<path d="M139.384 654.411C138.827 687.081 90.4665 687.076 89.915 654.411C90.472 621.74 138.833 621.745 139.384 654.411Z" fill="#FAFAFA"/>
<path d="M194.789 628.587L167.668 675.796H221.915L194.789 628.587Z" fill="#FAFAFA"/>
<path d="M296.217 633.025H253.65V675.796H296.217V633.025Z" fill="#FAFAFA"/>
<path d="M299.668 747.071C299.111 779.742 250.75 779.737 250.199 747.071C250.756 714.406 299.117 714.412 299.668 747.071Z" fill="#FAFAFA"/>
<path d="M537.705 747.071C537.148 779.742 488.787 779.737 488.236 747.071C488.793 714.406 537.154 714.412 537.705 747.071Z" fill="#FAFAFA"/>
<path d="M355.073 723.469L327.952 770.673H382.199L355.073 723.469Z" fill="#FAFAFA"/>
<path d="M379.807 654.411C379.25 687.081 330.89 687.076 330.338 654.411C330.895 621.74 379.261 621.745 379.807 654.411Z" fill="#FAFAFA"/>
<path d="M435.217 628.587L408.091 675.796H462.344L435.217 628.587Z" fill="#FAFAFA"/>
<path d="M536.646 633.025H494.078V675.796H536.646V633.025Z" fill="#FAFAFA"/>
<path d="M595.501 723.469L568.375 770.673H622.628L595.501 723.469Z" fill="#F3F3F3"/>
<path d="M515.362 814.76L488.236 861.964H542.488L515.362 814.76Z" fill="#F3F3F3"/>
<path d="M697.323 725.691H654.755V768.462H697.323V725.691Z" fill="#FAFAFA"/>
<path d="M615.786 819.069H573.218V861.84H615.786V819.069Z" fill="#FAFAFA"/>
<path d="M620.236 654.411C619.679 687.081 571.318 687.076 570.767 654.411C571.324 621.74 619.684 621.745 620.236 654.411Z" fill="#FAFAFA"/>
<path d="M675.641 628.587L648.52 675.796H702.767L675.641 628.587Z" fill="#FAFAFA"/>
<path d="M777.069 633.025H734.501V675.796H777.069V633.025Z" fill="#FAFAFA"/>
<path d="M780.52 747.071C779.963 779.742 731.602 779.737 731.051 747.071C731.602 714.406 779.968 714.412 780.52 747.071Z" fill="#FAFAFA"/>
<path d="M835.925 723.469L808.804 770.673H863.051L835.925 723.469Z" fill="#FAFAFA"/>
<path d="M937.746 725.691H895.178V768.462H937.746V725.691Z" fill="#FAFAFA"/>
<path d="M860.659 654.411C860.102 687.081 811.741 687.076 811.19 654.411C811.747 621.74 860.108 621.745 860.659 654.411Z" fill="#FAFAFA"/>
<path d="M916.069 628.587L888.943 675.796H943.19L916.069 628.587Z" fill="#FAFAFA"/>
<path d="M1017.49 633.025H974.924V675.796H1017.49V633.025Z" fill="#FAFAFA"/>
<path d="M1020.94 747.071C1020.39 779.742 972.025 779.737 971.474 747.071C972.031 714.406 1020.39 714.412 1020.94 747.071Z" fill="#FAFAFA"/>
<path d="M34.5105 816.977L7.38428 864.18H61.6312L34.5105 816.977Z" fill="#FAFAFA"/>
<path d="M55.7944 905.859H13.2268V948.63H55.7944V905.859Z" fill="#FAFAFA"/>
<path d="M135.934 819.193H93.366V861.964H135.934V819.193Z" fill="#FAFAFA"/>
<path d="M59.2454 1019.91C58.6885 1052.58 10.3276 1052.57 9.77612 1019.91C10.3276 987.235 58.6939 987.241 59.2454 1019.91Z" fill="#FAFAFA"/>
<path d="M114.65 996.304L87.5234 1043.51H141.776L114.65 996.304Z" fill="#FAFAFA"/>
<path d="M216.471 998.52H173.904V1041.29H216.471V998.52Z" fill="#FAFAFA"/>
<path d="M139.384 927.239C138.827 959.91 90.4665 959.904 89.915 927.239C90.472 894.574 138.833 894.574 139.384 927.239Z" fill="#FAFAFA"/>
<path d="M219.922 840.452C219.365 873.123 171.004 873.118 170.453 840.452C171.004 807.787 219.371 807.793 219.922 840.452Z" fill="#FAFAFA"/>
<path d="M194.789 901.421L167.668 948.625H221.915L194.789 901.421Z" fill="#FAFAFA"/>
<path d="M274.933 816.977L247.807 864.18H302.06L274.933 816.977Z" fill="#FAFAFA"/>
<path d="M296.217 905.859H253.65V948.63H296.217V905.859Z" fill="#FAFAFA"/>
<path d="M376.362 819.193H333.794V861.964H376.362V819.193Z" fill="#FAFAFA"/>
<path d="M299.668 1019.91C299.111 1052.58 250.75 1052.57 250.199 1019.91C250.756 987.235 299.117 987.241 299.668 1019.91Z" fill="#FAFAFA"/>
<path d="M355.073 996.304L327.952 1043.51H382.199L355.073 996.304Z" fill="#FAFAFA"/>
<path d="M456.894 998.52H414.327V1041.29H456.894V998.52Z" fill="#FAFAFA"/>
<path d="M379.807 927.239C379.25 959.91 330.89 959.904 330.338 927.239C330.895 894.574 379.261 894.574 379.807 927.239Z" fill="#FAFAFA"/>
<path d="M460.345 840.452C459.788 873.123 411.427 873.118 410.876 840.452C411.433 807.787 459.794 807.793 460.345 840.452Z" fill="#F3F3F3"/>
<path d="M435.217 901.421L408.091 948.625H462.344L435.217 901.421Z" fill="#F3F3F3"/>
<path d="M536.646 905.859H494.078V948.63H536.646V905.859Z" fill="#F3F3F3"/>
<path d="M540.091 1019.91C539.534 1052.58 491.174 1052.57 490.622 1019.91C491.179 987.235 539.545 987.241 540.091 1019.91Z" fill="#FAFAFA"/>
<path d="M619.237 927.239C618.68 959.91 570.319 959.904 569.768 927.239C570.325 894.569 618.691 894.574 619.237 927.239Z" fill="#FAFAFA"/>
<path d="M595.501 996.304L568.375 1043.51H622.628L595.501 996.304Z" fill="#FAFAFA"/>
<path d="M697.323 998.52H654.755V1041.29H697.323V998.52Z" fill="#FAFAFA"/>
<path d="M700.768 840.452C700.211 873.123 651.85 873.118 651.299 840.452C651.856 807.787 700.222 807.793 700.768 840.452Z" fill="#FAFAFA"/>
<path d="M675.641 901.421L648.52 948.625H702.767L675.641 901.421Z" fill="#FAFAFA"/>
<path d="M755.785 816.977L728.659 864.18H782.911L755.785 816.977Z" fill="#FAFAFA"/>
<path d="M777.069 905.859H734.501V948.63H777.069V905.859Z" fill="#FAFAFA"/>
<path d="M857.214 819.193H814.646V861.964H857.214V819.193Z" fill="#FAFAFA"/>
<path d="M780.52 1019.91C779.963 1052.58 731.602 1052.57 731.051 1019.91C731.602 987.235 779.968 987.241 780.52 1019.91Z" fill="#FAFAFA"/>
<path d="M835.925 996.304L808.804 1043.51H863.051L835.925 996.304Z" fill="#FAFAFA"/>
<path d="M937.746 998.52H895.178V1041.29H937.746V998.52Z" fill="#FAFAFA"/>
<path d="M860.659 927.239C860.102 959.91 811.741 959.904 811.19 927.239C811.747 894.574 860.108 894.574 860.659 927.239Z" fill="#FAFAFA"/>
<path d="M941.197 840.452C940.64 873.123 892.279 873.118 891.728 840.452C892.279 807.787 940.645 807.793 941.197 840.452Z" fill="#FAFAFA"/>
<path d="M916.069 901.421L888.943 948.625H943.19L916.069 901.421Z" fill="#FAFAFA"/>
<path d="M996.208 816.977L969.087 864.18H1023.33L996.208 816.977Z" fill="#FAFAFA"/>
<path d="M1017.49 905.859H974.924V948.63H1017.49V905.859Z" fill="#FAFAFA"/>
<path d="M1020.94 1019.91C1020.39 1052.58 972.025 1052.57 971.474 1019.91C972.031 987.235 1020.39 987.241 1020.94 1019.91Z" fill="#FAFAFA"/>
<path d="M34.5105 1089.81L7.38428 1137.01H61.6312L34.5105 1089.81Z" fill="#FAFAFA"/>
<path d="M135.934 1092.02H93.366V1134.79H135.934V1092.02Z" fill="#FAFAFA"/>
<path d="M219.922 1113.29C219.365 1145.96 171.004 1145.95 170.453 1113.29C171.004 1080.62 219.371 1080.62 219.922 1113.29Z" fill="#FAFAFA"/>
<path d="M274.933 1089.81L247.807 1137.01H302.06L274.933 1089.81Z" fill="#FAFAFA"/>
<path d="M376.362 1092.02H333.794V1134.79H376.362V1092.02Z" fill="#FAFAFA"/>
<path d="M460.345 1113.29C459.788 1145.96 411.427 1145.95 410.876 1113.29C411.433 1080.62 459.794 1080.62 460.345 1113.29Z" fill="#FAFAFA"/>
<path d="M515.357 1089.81L488.236 1137.01H542.483L515.357 1089.81Z" fill="#FAFAFA"/>
<path d="M616.785 1092.02H574.218V1134.79H616.785V1092.02Z" fill="#FAFAFA"/>
<path d="M700.768 1113.29C700.211 1145.96 651.85 1145.95 651.299 1113.29C651.856 1080.62 700.222 1080.62 700.768 1113.29Z" fill="#FAFAFA"/>
<path d="M755.785 1089.81L728.659 1137.01H782.911L755.785 1089.81Z" fill="#FAFAFA"/>
<path d="M857.214 1092.02H814.646V1134.79H857.214V1092.02Z" fill="#FAFAFA"/>
<path d="M941.197 1113.29C940.64 1145.96 892.279 1145.95 891.728 1113.29C892.279 1080.62 940.645 1080.62 941.197 1113.29Z" fill="#FAFAFA"/>
<path d="M996.208 1089.81L969.087 1137.01H1023.33L996.208 1089.81Z" fill="#FAFAFA"/>
<path d="M1100.59 819.842H1058.02V862.612H1100.59V819.842Z" fill="#FAFAFA"/>
<path d="M1341.01 819.842H1298.45V862.612H1341.01V819.842Z" fill="#FAFAFA"/>
<path d="M1104.04 654.774C1103.48 687.444 1055.12 687.439 1054.57 654.774C1055.12 622.103 1103.49 622.109 1104.04 654.774Z" fill="#FAFAFA"/>
<path d="M1078.91 721.737L1051.79 768.946H1106.03L1078.91 721.737Z" fill="#FAFAFA"/>
<path d="M1159.05 631.293L1131.92 678.496H1186.18L1159.05 631.293Z" fill="#FAFAFA"/>
<path d="M1180.33 726.175H1137.77V768.946H1180.33V726.175Z" fill="#FAFAFA"/>
<path d="M1260.48 633.509H1217.91V676.28H1260.48V633.509Z" fill="#FAFAFA"/>
<path d="M1183.79 841.221C1183.23 873.892 1134.87 873.887 1134.32 841.221C1134.87 808.556 1183.23 808.562 1183.79 841.221Z" fill="#FAFAFA"/>
<path d="M1421.82 841.221C1421.27 873.892 1372.9 873.887 1372.35 841.221C1372.91 808.556 1421.27 808.562 1421.82 841.221Z" fill="#FAFAFA"/>
<path d="M1239.19 817.62L1212.07 864.823H1266.32L1239.19 817.62Z" fill="#FAFAFA"/>
<path d="M1263.92 747.561C1263.37 780.232 1215.01 780.226 1214.46 747.561C1215.01 714.89 1263.38 714.896 1263.92 747.561Z" fill="#FAFAFA"/>
<path d="M1344.46 654.774C1343.91 687.444 1295.54 687.439 1294.99 654.774C1295.55 622.103 1343.91 622.109 1344.46 654.774Z" fill="#FAFAFA"/>
<path d="M1319.33 721.737L1292.21 768.946H1346.46L1319.33 721.737Z" fill="#FAFAFA"/>
<path d="M1399.47 631.293L1372.35 678.496H1426.6L1399.47 631.293Z" fill="#FAFAFA"/>
<path d="M1420.76 726.175H1378.2V768.946H1420.76V726.175Z" fill="#FAFAFA"/>
<path d="M1500.9 633.509H1458.33V676.28H1500.9V633.509Z" fill="#FAFAFA"/>
<path d="M1479.62 817.62L1452.49 864.823H1506.74L1479.62 817.62Z" fill="#F3F3F3"/>
<path d="M1399.48 901.91L1372.35 949.114H1426.61L1399.48 901.91Z" fill="#F3F3F3"/>
<path d="M1581.44 819.842H1538.87V862.612H1581.44V819.842Z" fill="#FAFAFA"/>
<path d="M1499.9 906.219H1457.34V948.99H1499.9V906.219Z" fill="#FAFAFA"/>
<path d="M1504.35 747.561C1503.8 780.232 1455.44 780.226 1454.88 747.561C1455.44 714.89 1503.8 714.896 1504.35 747.561Z" fill="#FAFAFA"/>
<path d="M1584.89 654.774C1584.33 687.444 1535.97 687.439 1535.42 654.774C1535.97 622.103 1584.34 622.109 1584.89 654.774Z" fill="#FAFAFA"/>
<path d="M1559.76 721.737L1532.64 768.946H1586.88L1559.76 721.737Z" fill="#FAFAFA"/>
<path d="M1639.9 631.293L1612.78 678.496H1667.03L1639.9 631.293Z" fill="#FAFAFA"/>
<path d="M1661.19 726.175H1618.62V768.946H1661.19V726.175Z" fill="#FAFAFA"/>
<path d="M1741.33 633.509H1698.76V676.28H1741.33V633.509Z" fill="#FAFAFA"/>
<path d="M1664.64 841.221C1664.08 873.892 1615.72 873.887 1615.17 841.221C1615.72 808.556 1664.09 808.562 1664.64 841.221Z" fill="#FAFAFA"/>
<path d="M1720.04 817.62L1692.92 864.823H1747.17L1720.04 817.62Z" fill="#FAFAFA"/>
<path d="M1821.86 819.842H1779.3V862.612H1821.86V819.842Z" fill="#FAFAFA"/>
<path d="M1744.78 747.561C1744.22 780.232 1695.86 780.226 1695.31 747.561C1695.86 714.89 1744.22 714.896 1744.78 747.561Z" fill="#FAFAFA"/>
<path d="M1825.31 654.774C1824.76 687.444 1776.4 687.439 1775.84 654.774C1776.4 622.103 1824.76 622.109 1825.31 654.774Z" fill="#FAFAFA"/>
<path d="M1800.19 721.737L1773.06 768.946H1827.31L1800.19 721.737Z" fill="#FAFAFA"/>
<path d="M1880.33 631.293L1853.2 678.496H1907.45L1880.33 631.293Z" fill="#FAFAFA"/>
<path d="M1901.61 726.175H1859.04V768.946H1901.61V726.175Z" fill="#FAFAFA"/>
<path d="M1905.06 841.221C1904.5 873.892 1856.14 873.887 1855.59 841.221C1856.15 808.556 1904.51 808.562 1905.06 841.221Z" fill="#FAFAFA"/>
<path d="M1100.59 1092.67H1058.02V1135.44H1100.59V1092.67Z" fill="#FAFAFA"/>
<path d="M1104.04 927.602C1103.48 960.273 1055.12 960.268 1054.57 927.602C1055.12 894.937 1103.49 894.943 1104.04 927.602Z" fill="#FAFAFA"/>
<path d="M1078.91 994.571L1051.79 1041.77H1106.03L1078.91 994.571Z" fill="#FAFAFA"/>
<path d="M1159.05 904.127L1131.92 951.33H1186.18L1159.05 904.127Z" fill="#FAFAFA"/>
<path d="M1180.33 999.009H1137.77V1041.78H1180.33V999.009Z" fill="#FAFAFA"/>
<path d="M1260.48 906.343H1217.91V949.114H1260.48V906.343Z" fill="#FAFAFA"/>
<path d="M1183.79 1114.06C1183.23 1146.73 1134.87 1146.72 1134.32 1114.06C1134.87 1081.38 1183.23 1081.39 1183.79 1114.06Z" fill="#FAFAFA"/>
<path d="M1239.19 1090.45L1212.07 1137.66H1266.32L1239.19 1090.45Z" fill="#FAFAFA"/>
<path d="M1341.01 1092.67H1298.44V1135.44H1341.01V1092.67Z" fill="#FAFAFA"/>
<path d="M1263.92 1020.39C1263.37 1053.06 1215.01 1053.05 1214.46 1020.39C1215.01 987.724 1263.38 987.724 1263.92 1020.39Z" fill="#FAFAFA"/>
<path d="M1344.46 927.602C1343.91 960.273 1295.54 960.268 1294.99 927.602C1295.55 894.937 1343.91 894.943 1344.46 927.602Z" fill="#F3F3F3"/>
<path d="M1319.33 994.571L1292.21 1041.77H1346.46L1319.33 994.571Z" fill="#F3F3F3"/>
<path d="M1420.76 999.009H1378.2V1041.78H1420.76V999.009Z" fill="#F3F3F3"/>
<path d="M1424.21 1114.06C1423.65 1146.73 1375.29 1146.72 1374.74 1114.06C1375.3 1081.38 1423.66 1081.39 1424.21 1114.06Z" fill="#FAFAFA"/>
<path d="M1503.35 1020.39C1502.8 1053.06 1454.44 1053.05 1453.88 1020.39C1454.44 987.719 1502.81 987.724 1503.35 1020.39Z" fill="#FAFAFA"/>
<path d="M1479.62 1090.45L1452.49 1137.66H1506.74L1479.62 1090.45Z" fill="#FAFAFA"/>
<path d="M1581.44 1092.67H1538.87V1135.44H1581.44V1092.67Z" fill="#FAFAFA"/>
<path d="M1584.89 927.602C1584.33 960.273 1535.97 960.268 1535.42 927.602C1535.97 894.937 1584.34 894.943 1584.89 927.602Z" fill="#FAFAFA"/>
<path d="M1559.76 994.571L1532.64 1041.77H1586.88L1559.76 994.571Z" fill="#FAFAFA"/>
<path d="M1639.9 904.127L1612.78 951.33H1667.03L1639.9 904.127Z" fill="#FAFAFA"/>
<path d="M1661.19 999.009H1618.62V1041.78H1661.19V999.009Z" fill="#FAFAFA"/>
<path d="M1741.33 906.343H1698.76V949.114H1741.33V906.343Z" fill="#FAFAFA"/>
<path d="M1664.64 1114.06C1664.08 1146.73 1615.72 1146.72 1615.17 1114.06C1615.72 1081.38 1664.09 1081.39 1664.64 1114.06Z" fill="#FAFAFA"/>
<path d="M1720.04 1090.45L1692.92 1137.66H1747.17L1720.04 1090.45Z" fill="#FAFAFA"/>
<path d="M1821.86 1092.67H1779.3V1135.44H1821.86V1092.67Z" fill="#FAFAFA"/>
<path d="M1744.78 1020.39C1744.22 1053.06 1695.86 1053.05 1695.31 1020.39C1695.86 987.724 1744.22 987.724 1744.78 1020.39Z" fill="#FAFAFA"/>
<path d="M1825.31 927.602C1824.76 960.273 1776.4 960.268 1775.84 927.602C1776.4 894.937 1824.76 894.943 1825.31 927.602Z" fill="#FAFAFA"/>
<path d="M1800.19 994.571L1773.06 1041.77H1827.31L1800.19 994.571Z" fill="#FAFAFA"/>
<path d="M1880.33 904.127L1853.2 951.33H1907.45L1880.33 904.127Z" fill="#FAFAFA"/>
<path d="M1901.61 999.009H1859.04V1041.78H1901.61V999.009Z" fill="#FAFAFA"/>
<path d="M1905.06 1114.06C1904.5 1146.73 1856.14 1146.72 1855.59 1114.06C1856.15 1081.38 1904.51 1081.39 1905.06 1114.06Z" fill="#FAFAFA"/>
<path d="M1097.8 3.23633H1055.24V46.0071H1097.8V3.23633Z" fill="#FAFAFA"/>
<path d="M1076.52 180.347L1049.39 227.55H1103.65L1076.52 180.347Z" fill="#FAFAFA"/>
<path d="M1178.34 182.569H1135.77V225.34H1178.34V182.569Z" fill="#FAFAFA"/>
<path d="M1418.77 182.569H1376.2V225.34H1418.77V182.569Z" fill="#FAFAFA"/>
<path d="M1101.25 111.288C1100.7 143.959 1052.34 143.953 1051.79 111.288C1052.34 78.6174 1100.7 78.6229 1101.25 111.288Z" fill="#FAFAFA"/>
<path d="M1181.79 24.5009C1181.24 57.1715 1132.87 57.166 1132.32 24.5009C1132.87 -8.16971 1181.24 -8.16422 1181.79 24.5009Z" fill="#FAFAFA"/>
<path d="M1156.66 85.4641L1129.54 132.673H1183.79L1156.66 85.4641Z" fill="#FAFAFA"/>
<path d="M1236.8 1.01929L1209.68 48.2229H1263.93L1236.8 1.01929Z" fill="#FAFAFA"/>
<path d="M1258.09 89.9023H1215.52V132.673H1258.09V89.9023Z" fill="#FAFAFA"/>
<path d="M1338.23 3.23633H1295.67V46.0071H1338.23V3.23633Z" fill="#FAFAFA"/>
<path d="M1261.54 203.949C1260.98 236.619 1212.62 236.614 1212.07 203.949C1212.63 171.284 1260.99 171.289 1261.54 203.949Z" fill="#FAFAFA"/>
<path d="M1499.58 203.949C1499.02 236.619 1450.66 236.614 1450.11 203.949C1450.66 171.284 1499.02 171.289 1499.58 203.949Z" fill="#FAFAFA"/>
<path d="M1316.94 180.347L1289.82 227.55H1344.07L1316.94 180.347Z" fill="#FAFAFA"/>
<path d="M1341.68 111.288C1341.12 143.959 1292.76 143.953 1292.21 111.288C1292.77 78.6174 1341.13 78.6229 1341.68 111.288Z" fill="#FAFAFA"/>
<path d="M1422.22 24.5009C1421.66 57.1715 1373.3 57.166 1372.75 24.5009C1373.3 -8.16971 1421.66 -8.16422 1422.22 24.5009Z" fill="#FAFAFA"/>
<path d="M1397.09 85.4641L1369.96 132.673H1424.21L1397.09 85.4641Z" fill="#FAFAFA"/>
<path d="M1477.23 1.01929L1450.11 48.2229H1504.35L1477.23 1.01929Z" fill="#FAFAFA"/>
<path d="M1498.52 89.9023H1455.95V132.673H1498.52V89.9023Z" fill="#FAFAFA"/>
<path d="M1578.66 3.23633H1536.09V46.0071H1578.66V3.23633Z" fill="#FAFAFA"/>
<path d="M1557.37 180.347L1530.25 227.55H1584.5L1557.37 180.347Z" fill="#F3F3F3"/>
<path d="M1477.23 271.637L1450.11 318.841H1504.36L1477.23 271.637Z" fill="#F3F3F3"/>
<path d="M1659.19 182.569H1616.63V225.34H1659.19V182.569Z" fill="#FAFAFA"/>
<path d="M1577.66 275.946H1535.09V318.717H1577.66V275.946Z" fill="#FAFAFA"/>
<path d="M1582.11 111.288C1581.55 143.959 1533.19 143.953 1532.64 111.288C1533.19 78.6174 1581.56 78.6229 1582.11 111.288Z" fill="#FAFAFA"/>
<path d="M1662.64 24.5009C1662.08 57.1715 1613.72 57.166 1613.17 24.5009C1613.73 -8.16971 1662.09 -8.16422 1662.64 24.5009Z" fill="#FAFAFA"/>
<path d="M1637.51 85.4641L1610.39 132.673H1664.64L1637.51 85.4641Z" fill="#FAFAFA"/>
<path d="M1717.66 1.01929L1690.53 48.2229H1744.78L1717.66 1.01929Z" fill="#FAFAFA"/>
<path d="M1738.94 89.9023H1696.37V132.673H1738.94V89.9023Z" fill="#FAFAFA"/>
<path d="M1819.08 3.23633H1776.52V46.0071H1819.08V3.23633Z" fill="#FAFAFA"/>
<path d="M1742.39 203.949C1741.83 236.619 1693.47 236.614 1692.92 203.949C1693.47 171.284 1741.84 171.289 1742.39 203.949Z" fill="#FAFAFA"/>
<path d="M1797.79 180.347L1770.67 227.55H1824.92L1797.79 180.347Z" fill="#FAFAFA"/>
<path d="M1899.62 182.569H1857.05V225.34H1899.62V182.569Z" fill="#FAFAFA"/>
<path d="M1822.53 111.288C1821.97 143.959 1773.61 143.953 1773.06 111.288C1773.62 78.6174 1821.98 78.6229 1822.53 111.288Z" fill="#FAFAFA"/>
<path d="M1903.07 24.5009C1902.51 57.1715 1854.15 57.166 1853.6 24.5009C1854.15 -8.16971 1902.52 -8.16422 1903.07 24.5009Z" fill="#FAFAFA"/>
<path d="M1877.94 85.4641L1850.81 132.673H1905.06L1877.94 85.4641Z" fill="#FAFAFA"/>
<path d="M1097.8 276.07H1055.24V318.841H1097.8V276.07Z" fill="#FAFAFA"/>
<path d="M1076.52 453.181L1049.39 500.385H1103.65L1076.52 453.181Z" fill="#FAFAFA"/>
<path d="M1178.34 455.397H1135.77V498.168H1178.34V455.397Z" fill="#FAFAFA"/>
<path d="M1101.25 384.117C1100.7 416.787 1052.34 416.782 1051.79 384.117C1052.34 351.451 1100.7 351.451 1101.25 384.117Z" fill="#FAFAFA"/>
<path d="M1181.79 297.33C1181.24 330 1132.87 329.995 1132.32 297.33C1132.87 264.664 1181.24 264.67 1181.79 297.33Z" fill="#FAFAFA"/>
<path d="M1156.66 358.298L1129.54 405.502H1183.79L1156.66 358.298Z" fill="#FAFAFA"/>
<path d="M1236.8 273.854L1209.68 321.058H1263.93L1236.8 273.854Z" fill="#FAFAFA"/>
<path d="M1258.09 362.737H1215.52V405.507H1258.09V362.737Z" fill="#FAFAFA"/>
<path d="M1338.23 276.07H1295.67V318.841H1338.23V276.07Z" fill="#FAFAFA"/>
<path d="M1261.54 476.783C1260.98 509.453 1212.62 509.448 1212.07 476.783C1212.63 444.112 1260.99 444.118 1261.54 476.783Z" fill="#FAFAFA"/>
<path d="M1316.94 453.181L1289.82 500.385H1344.07L1316.94 453.181Z" fill="#FAFAFA"/>
<path d="M1418.76 455.397H1376.2V498.168H1418.76V455.397Z" fill="#FAFAFA"/>
<path d="M1341.68 384.117C1341.12 416.787 1292.76 416.782 1292.21 384.117C1292.77 351.451 1341.13 351.451 1341.68 384.117Z" fill="#FAFAFA"/>
<path d="M1422.22 297.33C1421.66 330 1373.3 329.995 1372.75 297.33C1373.3 264.664 1421.66 264.67 1422.22 297.33Z" fill="#F3F3F3"/>
<path d="M1397.09 358.298L1369.96 405.502H1424.21L1397.09 358.298Z" fill="#F3F3F3"/>
<path d="M1498.52 362.737H1455.95V405.507H1498.52V362.737Z" fill="#F3F3F3"/>
<path d="M1501.96 476.783C1501.4 509.453 1453.04 509.448 1452.49 476.783C1453.05 444.112 1501.42 444.118 1501.96 476.783Z" fill="#FAFAFA"/>
<path d="M1581.11 384.117C1580.55 416.787 1532.19 416.782 1531.64 384.117C1532.19 351.446 1580.56 351.452 1581.11 384.117Z" fill="#FAFAFA"/>
<path d="M1557.37 453.181L1530.25 500.385H1584.5L1557.37 453.181Z" fill="#FAFAFA"/>
<path d="M1659.19 455.397H1616.63V498.168H1659.19V455.397Z" fill="#FAFAFA"/>
<path d="M1662.64 297.33C1662.08 330 1613.72 329.995 1613.17 297.33C1613.73 264.664 1662.09 264.67 1662.64 297.33Z" fill="#FAFAFA"/>
<path d="M1637.51 358.298L1610.39 405.502H1664.64L1637.51 358.298Z" fill="#FAFAFA"/>
<path d="M1717.66 273.854L1690.53 321.058H1744.78L1717.66 273.854Z" fill="#FAFAFA"/>
<path d="M1738.94 362.737H1696.37V405.507H1738.94V362.737Z" fill="#FAFAFA"/>
<path d="M1819.08 276.07H1776.52V318.841H1819.08V276.07Z" fill="#FAFAFA"/>
<path d="M1742.39 476.783C1741.83 509.453 1693.47 509.448 1692.92 476.783C1693.47 444.112 1741.84 444.118 1742.39 476.783Z" fill="#FAFAFA"/>
<path d="M1797.79 453.181L1770.67 500.385H1824.92L1797.79 453.181Z" fill="#FAFAFA"/>
<path d="M1899.62 455.397H1857.05V498.168H1899.62V455.397Z" fill="#FAFAFA"/>
<path d="M1822.53 384.117C1821.97 416.787 1773.61 416.782 1773.06 384.117C1773.62 351.451 1821.98 351.451 1822.53 384.117Z" fill="#FAFAFA"/>
<path d="M1903.07 297.33C1902.51 330 1854.15 329.995 1853.6 297.33C1854.15 264.664 1902.52 264.67 1903.07 297.33Z" fill="#FAFAFA"/>
<path d="M1877.94 358.298L1850.81 405.502H1905.06L1877.94 358.298Z" fill="#FAFAFA"/>
<path d="M1097.8 548.899H1055.24V591.67H1097.8V548.899Z" fill="#FAFAFA"/>
<path d="M1181.79 570.164C1181.24 602.834 1132.87 602.829 1132.32 570.164C1132.87 537.493 1181.24 537.499 1181.79 570.164Z" fill="#FAFAFA"/>
<path d="M1236.8 546.683L1209.68 593.886H1263.93L1236.8 546.683Z" fill="#FAFAFA"/>
<path d="M1338.23 548.899H1295.67V591.67H1338.23V548.899Z" fill="#FAFAFA"/>
<path d="M1422.22 570.164C1421.66 602.834 1373.3 602.829 1372.75 570.164C1373.3 537.493 1421.66 537.499 1422.22 570.164Z" fill="#FAFAFA"/>
<path d="M1477.23 546.683L1450.11 593.886H1504.35L1477.23 546.683Z" fill="#FAFAFA"/>
<path d="M1578.66 548.899H1536.09V591.67H1578.66V548.899Z" fill="#FAFAFA"/>
<path d="M1662.64 570.164C1662.08 602.834 1613.72 602.829 1613.17 570.164C1613.73 537.493 1662.09 537.499 1662.64 570.164Z" fill="#FAFAFA"/>
<path d="M1717.66 546.683L1690.53 593.886H1744.78L1717.66 546.683Z" fill="#FAFAFA"/>
<path d="M1819.08 548.899H1776.52V591.67H1819.08V548.899Z" fill="#FAFAFA"/>
<path d="M1903.07 570.164C1902.51 602.834 1854.15 602.829 1853.6 570.164C1854.15 537.493 1902.52 537.499 1903.07 570.164Z" fill="#FAFAFA"/>
<path d="M1958.08 546.683L1930.96 593.886H1985.21L1958.08 546.683Z" fill="#FAFAFA"/>
</g>
</mask>
<g mask="url(#mask0)">
<rect width="1920" height="1098.23" fill="url(#paint0_radial)"/>
</g>
<defs>
<radialGradient id="paint0_radial" cx="0" cy="0" r="1" gradientUnits="userSpaceOnUse" gradientTransform="translate(960 428.465) rotate(90.672) scale(1343.16 2348.3)">
<stop offset="0.0208333" stop-color="white" stop-opacity="0"/>
<stop offset="1" stop-color="white"/>
</radialGradient>
</defs>
</svg>
